<mxfile host="65bd71144e">
    <diagram name="MiniRV_emu Architecture" id="0">
        <mxGraphModel dx="2238" dy="1056" grid="1" gridSize="10" guides="1" tooltips="1" connect="1" arrows="1" fold="1" page="1" pageScale="1" pageWidth="850" pageHeight="1100" math="0" shadow="0">
            <root>
                <mxCell id="0"/>
                <mxCell id="1" parent="0"/>
                <mxCell id="main" value="minirv_main.c Main menu / modes" style="rounded=1;whiteSpace=wrap;html=1;" parent="1" vertex="1">
                    <mxGeometry x="360" y="60" width="160" height="60" as="geometry"/>
                </mxCell>
                <mxCell id="mode_debug" value="Debug mode (minirv_mode.c)" style="rounded=1;whiteSpace=wrap;html=1;" parent="1" vertex="1">
                    <mxGeometry x="80" y="180" width="160" height="60" as="geometry"/>
                </mxCell>
                <mxCell id="mode_run" value="Run mode (minirv_mode.c)" style="rounded=1;whiteSpace=wrap;html=1;" parent="1" vertex="1">
                    <mxGeometry x="360" y="180" width="160" height="60" as="geometry"/>
                </mxCell>
                <mxCell id="mode_load" value="HEX load (hex_load.c)" style="rounded=1;whiteSpace=wrap;html=1;" parent="1" vertex="1">
                    <mxGeometry x="640" y="180" width="160" height="60" as="geometry"/>
                </mxCell>
                <mxCell id="cpu_init" value="CPU_state &amp; init (minirv_cpu.c)" style="rounded=1;whiteSpace=wrap;html=1;" parent="1" vertex="1">
                    <mxGeometry x="360" y="300" width="160" height="60" as="geometry"/>
                </mxCell>
                <mxCell id="fetch" value="Fetch mem_read(pc) (minirv_mem.c)" style="rounded=1;whiteSpace=wrap;html=1;" parent="1" vertex="1">
                    <mxGeometry x="100" y="420" width="160" height="60" as="geometry"/>
                </mxCell>
                <mxCell id="decode" value="Decode DecodeInst (minirv_decode.c)" style="rounded=1;whiteSpace=wrap;html=1;" parent="1" vertex="1">
                    <mxGeometry x="360" y="420" width="160" height="60" as="geometry"/>
                </mxCell>
                <mxCell id="execute" value="Execute inst_execute() (minirv_execute.c)" style="rounded=1;whiteSpace=wrap;html=1;" parent="1" vertex="1">
                    <mxGeometry x="620" y="420" width="160" height="60" as="geometry"/>
                </mxCell>
                <mxCell id="alu" value="ALU ADD/ADDI/LUI" style="rounded=1;whiteSpace=wrap;html=1;" parent="1" vertex="1">
                    <mxGeometry x="620" y="520" width="160" height="50" as="geometry"/>
                </mxCell>
                <mxCell id="memop" value="Memory LW/LBU/SW/SB" style="rounded=1;whiteSpace=wrap;html=1;" parent="1" vertex="1">
                    <mxGeometry x="620" y="590" width="160" height="50" as="geometry"/>
                </mxCell>
                <mxCell id="branch" value="Ctrl flow JALR/BEQ/BNE" style="rounded=1;whiteSpace=wrap;html=1;" parent="1" vertex="1">
                    <mxGeometry x="620" y="660" width="160" height="50" as="geometry"/>
                </mxCell>
                <mxCell id="gpr" value="GPR x0..x31 (minirv_gpr.c)" style="rounded=1;whiteSpace=wrap;html=1;" parent="1" vertex="1">
                    <mxGeometry x="100" y="580" width="160" height="60" as="geometry"/>
                </mxCell>
                <mxCell id="mem" value="Memory model (minirv_mem.c)" style="rounded=1;whiteSpace=wrap;html=1;" parent="1" vertex="1">
                    <mxGeometry x="100" y="680" width="160" height="60" as="geometry"/>
                </mxCell>
            </root>
        </mxGraphModel>
    </diagram>
    <diagram name="HEX Loader Logic" id="1">
        <mxGraphModel dx="2238" dy="1056" grid="1" gridSize="10" guides="1" tooltips="1" connect="1" arrows="1" fold="1" page="1" pageScale="1" pageWidth="850" pageHeight="1100" math="0" shadow="0">
            <root>
                <mxCell id="0"/>
                <mxCell id="1" parent="0"/>
                <mxCell id="hex_entry" value="hex_load(): entry read filename" style="rounded=1;whiteSpace=wrap;html=1;" parent="1" vertex="1">
                    <mxGeometry x="360" y="60" width="200" height="60" as="geometry"/>
                </mxCell>
                <mxCell id="hex_exec" value="hex_execute(cpu, filename) open &amp; validate hex_search()" style="rounded=1;whiteSpace=wrap;html=1;" parent="1" vertex="1">
                    <mxGeometry x="360" y="160" width="200" height="70" as="geometry"/>
                </mxCell>
                <mxCell id="hex_search" value="hex_search() try multiple paths" style="rounded=1;whiteSpace=wrap;html=1;" parent="1" vertex="1">
                    <mxGeometry x="80" y="260" width="200" height="60" as="geometry"/>
                </mxCell>
                <mxCell id="hex_format" value="hex_format_check() objdump or simple" style="rounded=1;whiteSpace=wrap;html=1;" parent="1" vertex="1">
                    <mxGeometry x="640" y="260" width="200" height="60" as="geometry"/>
                </mxCell>
                <mxCell id="objdump_check" value="objdump_check() parse addr: bytes" style="rounded=1;whiteSpace=wrap;html=1;" parent="1" vertex="1">
                    <mxGeometry x="80" y="360" width="200" height="60" as="geometry"/>
                </mxCell>
                <mxCell id="simple_check" value="simple_check() 32-bit hex per line" style="rounded=1;whiteSpace=wrap;html=1;" parent="1" vertex="1">
                    <mxGeometry x="640" y="360" width="200" height="60" as="geometry"/>
                </mxCell>
                <mxCell id="load_objdump" value="load_objdump() clean_format, write mem" style="rounded=1;whiteSpace=wrap;html=1;" parent="1" vertex="1">
                    <mxGeometry x="80" y="460" width="200" height="60" as="geometry"/>
                </mxCell>
                <mxCell id="load_simple" value="load_simple() sequential write" style="rounded=1;whiteSpace=wrap;html=1;" parent="1" vertex="1">
                    <mxGeometry x="640" y="460" width="200" height="60" as="geometry"/>
                </mxCell>
                <mxCell id="shared" value="Shared utils clean_format, address_used" style="rounded=1;whiteSpace=wrap;html=1;" parent="1" vertex="1">
                    <mxGeometry x="360" y="560" width="200" height="60" as="geometry"/>
                </mxCell>
                <mxCell id="result" value="Result/Report success/fail" style="rounded=1;whiteSpace=wrap;html=1;" parent="1" vertex="1">
                    <mxGeometry x="360" y="660" width="200" height="60" as="geometry"/>
                </mxCell>
            </root>
        </mxGraphModel>
    </diagram>
</mxfile>